<svg width="71" height="71" viewBox="0 0 71 71" fill="none" xmlns="http://www.w3.org/2000/svg">
<path fill-rule="evenodd" clip-rule="evenodd" d="M12.85 0C8.51 0.32 4.62 2.61 2.22 6.25C1.04 8.06 0.3 10.1 0.04 12.33C0 12.64 0 58.16 0 58.16L0.07 58.68C0.63 62.75 2.78 66.22 6.15 68.47C7.99 69.7 9.98 70.42 12.37 70.72C12.78 70.77 57.75 70.8 58.67 70.68C63.54 70.06 67.73 66.89 69.66 62.38C70.26 60.97 70.61 59.52 70.73 57.95C70.76 57.61 70.73 12.65 70.69 12.25C70.48 10.61 70.06 9.2 69.4 7.81C67.72 4.33 64.62 1.67 60.92 0.56C60.16 0.33 59.33 0.16 58.41 0.04C58 0 13.05 0 12.85 0ZM29.59 11.75C29.17 11.89 28.91 11.93 28.32 11.93C27.99 11.93 27.65 11.95 27.45 11.98C27.27 12.01 26.97 12.03 26.78 12.03C26.43 12.03 25.82 12.11 25.25 12.22C24.75 12.32 23.88 12.63 23.42 12.86C23.2 12.98 22.92 13.12 22.82 13.17C22.65 13.26 22.59 13.27 22.35 13.27C22.2 13.27 21.83 13.25 21.53 13.22C21.04 13.17 20.97 13.16 20.88 13.08C20.71 12.95 20.45 12.83 20.33 12.83C20.12 12.83 20.03 12.92 19.81 13.37C19.53 13.94 19.38 14.13 18.85 14.52C17.99 15.16 17.62 15.84 17.57 16.85C17.55 17.34 17.54 17.37 17.43 17.47C17.29 17.6 15.95 18.61 15.79 18.69C15.71 18.74 15.59 18.85 15.5 18.98C15.41 19.1 15.21 19.35 15.04 19.55C14.55 20.13 14.45 20.29 14.23 20.88C14.16 21.07 13.95 21.5 13.79 21.83C13.2 22.98 13.18 23 13.18 23.2C13.18 23.33 13.21 23.46 13.28 23.64C13.53 24.26 13.59 24.77 13.5 25.41C13.4 26.08 13.31 26.36 12.98 27.04C12.81 27.39 12.67 27.68 12.67 27.69C12.67 27.7 12.72 27.75 12.78 27.79C13.02 27.96 13.16 28.21 13.16 28.52C13.16 28.76 13.23 29.02 13.35 29.23C13.4 29.31 13.82 29.77 14.28 30.24C14.96 30.93 15.15 31.15 15.24 31.32C15.45 31.72 15.66 32.06 15.79 32.18C15.96 32.35 16.71 32.91 17.18 33.22C17.6 33.5 18.28 33.89 18.72 34.12C19.08 34.3 19.29 34.32 19.62 34.18C20.28 33.91 20.36 33.89 21.72 33.9C23 33.9 22.93 33.92 23.95 33.55C24.66 33.3 25.03 33.2 25.51 33.13C26.36 33.01 26.5 33.08 26.9 33.75C27.08 34.06 27.18 34.17 27.36 34.26C27.48 34.32 27.52 34.32 27.83 34.3C28.02 34.28 28.36 34.27 28.6 34.27C28.98 34.27 29.04 34.27 29.19 34.34C29.39 34.43 29.51 34.55 29.61 34.72C29.75 34.98 29.68 35.61 29.38 36.73C29.19 37.42 29.22 37.78 29.5 38.21C29.55 38.29 29.86 38.63 30.17 38.97C30.48 39.31 30.81 39.68 30.9 39.8C31.23 40.23 31.68 41.48 31.83 42.34C31.88 42.62 31.91 42.88 31.91 42.92C31.91 42.96 31.96 43.15 32.02 43.33C32.2 43.86 32.17 44.13 31.89 44.52C31.28 45.38 30.99 46.34 30.94 47.7C30.91 48.44 30.95 48.56 31.54 49.55C32.12 50.52 32.39 51.11 32.52 51.67C32.55 51.82 32.64 52.3 32.7 52.75C32.83 53.68 33 54.48 33.12 54.73C33.16 54.82 33.3 55.02 33.42 55.17C33.75 55.58 34.07 56.09 34.35 56.66C34.83 57.63 34.93 57.99 34.9 58.48C34.85 59.15 35.1 59.65 35.61 59.89C35.92 60.03 36.22 60.02 37.06 59.83C37.86 59.65 38.37 59.58 38.86 59.58C39.25 59.58 39.93 59.49 40.31 59.38C40.69 59.28 40.96 59.12 41.31 58.8C42 58.18 42.71 57.33 43.56 56.1C44.25 55.11 44.36 54.84 44.39 54.06C44.41 53.62 44.42 53.54 44.48 53.46C44.56 53.34 45.11 53.07 45.31 53.04C45.54 53.01 45.69 52.91 45.78 52.76C45.97 52.43 46.07 51.67 46 51.11C45.98 50.96 45.92 50.65 45.87 50.43C45.67 49.61 45.77 49.32 46.38 48.96C46.56 48.85 46.63 48.79 46.74 48.61C46.95 48.29 47.25 48.08 47.75 47.92C48.43 47.7 48.99 47.15 49.23 46.47C49.31 46.23 49.32 45.86 49.28 44.94C49.26 44.53 49.26 44.36 49.31 44.03C49.38 43.51 49.36 43.43 49.1 43.1C48.76 42.67 48.64 42.35 48.58 41.73C48.55 41.45 48.53 41.33 48.42 41.08C48.32 40.83 48.29 40.73 48.3 40.56C48.3 40.35 48.3 40.34 48.65 39.71C49.1 38.9 49.27 38.64 49.7 38.14C50.67 37.01 51.5 36.22 52.62 35.39C53.31 34.87 53.76 34.4 54.11 33.84C55.17 32.11 55.83 30.8 55.92 30.24C55.98 29.87 55.91 29.46 55.77 29.35C55.64 29.25 55.51 29.27 55.11 29.43C54.82 29.55 54.6 29.61 54.02 29.72C52.52 30.02 51.8 30.14 51.62 30.12C51.29 30.09 51.12 29.89 51.02 29.45C50.99 29.3 50.94 29.12 50.91 29.06C50.85 28.93 49.99 28.09 49.28 27.46C48.68 26.93 48.53 26.74 48.4 26.32C48.23 25.77 48.07 25.5 47.7 25.12C47.35 24.76 47.28 24.61 47.25 24.08C47.2 23.31 47.01 22.87 46.51 22.33C46.31 22.12 46.27 22.04 46.18 21.8C46.12 21.64 46.08 21.5 46.08 21.49C46.08 21.39 45.95 21.12 45.8 20.88C45.53 20.46 45.01 19.31 45.01 19.13C45.01 19.1 45.09 19.05 45.19 19.01L45.37 18.94L45.51 18.53C45.63 18.16 45.65 18.08 45.65 17.81C45.65 17.48 45.65 17.45 45.44 16.76L45.31 16.32L44.75 16.28C44.36 16.25 44.09 16.22 43.86 16.16C43.61 16.1 43.45 16.08 43.19 16.08C42.83 16.08 42.63 16.12 42.21 16.3C41.87 16.44 41.7 16.42 39.95 15.98L38.45 15.6L38.24 15.41C37.96 15.14 37.75 15.07 37.38 15.09C37.02 15.11 36.51 15.27 36.35 15.42C36.19 15.56 36.14 15.69 36.11 16.1C36.08 16.48 36 16.72 35.89 16.78C35.85 16.8 35.77 16.82 35.71 16.82C35.51 16.82 33.88 16.18 33.69 16.03C33.62 15.97 33.56 15.89 33.53 15.78C33.42 15.44 33.08 15.28 32.21 15.15C31.49 15.04 30.97 14.87 30.48 14.56L30.21 14.39L30.29 14.3C30.29 14.3 30.46 14.11 30.57 13.99C30.91 13.61 30.95 13.42 30.75 13.03C30.6 12.73 30.6 12.58 30.78 12.35C30.98 12.09 30.93 11.99 30.57 11.96C30.42 11.95 30.37 11.93 30.33 11.86C30.26 11.75 30.09 11.65 29.97 11.66C29.92 11.66 29.76 11.7 29.63 11.74M54.43 44.58C54.28 44.67 54.15 44.84 53.93 45.23C53.82 45.43 53.66 45.66 53.58 45.74C53.5 45.83 53.44 45.92 53.43 45.95C53.43 46.13 53.15 46.51 52.93 46.63C52.88 46.66 52.55 46.8 52.21 46.95L51.59 47.21L51.44 47.51C51.36 47.68 51.26 47.91 51.24 48.04C51.17 48.33 51.18 48.77 51.24 49.11C51.31 49.45 51.28 49.62 51.08 50.06C50.82 50.64 50.75 50.98 50.8 51.4C50.84 51.74 50.9 51.93 51.12 52.44C51.26 52.77 51.34 52.92 51.45 53.03C51.62 53.21 51.95 53.42 52.06 53.42C52.1 53.42 52.25 53.37 52.39 53.31C52.53 53.25 52.74 53.18 52.85 53.16C53.1 53.11 53.2 53.06 53.35 52.91C53.56 52.7 53.69 52.35 53.94 51.36C54.02 51.03 54.2 50.4 54.33 49.96C54.63 48.99 54.78 48.43 54.85 47.95C54.9 47.65 54.94 47.53 55.07 47.27L55.23 46.94V46.19C55.21 45.53 55.2 45.41 55.13 45.22C55.01 44.85 54.73 44.51 54.57 44.51C54.55 44.51 54.48 44.54 54.43 44.57" fill="black"/>
</svg>
